<svg width="64" height="64" viewBox="0 0 24 24" fill="none" xmlns="http://www.w3.org/2000/svg">
  <!-- Dynamic Gradient Definition -->
  <defs>
    <linearGradient id="gradient" x1="0%" y1="0%" x2="100%" y2="100%">
      <stop offset="0%" stop-color="#3b82f6" />
      <stop offset="100%" stop-color="#8b5cf6" />
    </linearGradient>
  </defs>
  
  <!-- Sleek X-Ray/Spy Eye and Code Brackets Motif -->
  <path d="M12 4C5.5 4 1.5 12 1.5 12C1.5 12 5.5 20 12 20C18.5 20 22.5 12 22.5 12C22.5 12 18.5 4 12 4ZM12 17C9.24 17 7 14.76 7 12C7 9.24 9.24 7 12 7C14.76 7 17 9.24 17 12C17 14.76 14.76 17 12 17Z" fill="url(#gradient)" opacity="0.8"/>
  <circle cx="12" cy="12" r="3" fill="url(#gradient)"/>
  
  <!-- Floating Code accents -->
  <path d="M5 8L2 12L5 16" stroke="#8b5cf6" stroke-width="1.5" stroke-linecap="round" stroke-linejoin="round"/>
  <path d="M19 8L22 12L19 16" stroke="#3b82f6" stroke-width="1.5" stroke-linecap="round" stroke-linejoin="round"/>
</svg>
